# xmcd
#
# Track frame offsets:
#	150
#	16501
#	32229
#	51491
#	69094
#	86842
#	103920
#	120210
#	141964
#	159287
#	179190
#
# Disc length: 2616 seconds
#
# Revision: 1
# Processed by: cddbd v1.5.1PL2 Copyright (c) Steve Scherf et al.
# Submitted via: audiograbber 1.83.01
#
DISCID=8f0a360b
DTITLE=Groove Doctors - Highlife
DYEAR=2005
DGENRE=Blues
TTITLE0=Way Of The World
TTITLE1=Do It Alone
TTITLE2=Remise
TTITLE3=Love Has A Hold
TTITLE4=Highlife
TTITLE5=Winter Blues
TTITLE6='Til The Broad Daylight
TTITLE7=Time
TTITLE8=Indigo Heart
TTITLE9=Love How It's Meant To Be
TTITLE10=Get Out Of Here
EXTD=
EXTT0=
EXTT1=
EXTT2=
EXTT3=
EXTT4=
EXTT5=
EXTT6=
EXTT7=
EXTT8=
EXTT9=
EXTT10=
PLAYORDER=
